<?xml version="1.0" encoding="UTF-8" standalone="no"?>
<svg
   shape-rendering="geometricPrecision"
   text-rendering="geometricPrecision"
   image-rendering="optimizeQuality"
   fill-rule="evenodd"
   clip-rule="evenodd"
   viewBox="0 0 588.65425 523.17214"
   version="1.1"
   id="svg1"
   width="588.65424"
   height="523.17212"
   xmlns="http://www.w3.org/2000/svg"
   xmlns:svg="http://www.w3.org/2000/svg">
  <defs
     id="defs1" />
  <path
     fill="#0085FF"
     fill-rule="nonzero"
     d="m 151.229,64.936864 c 58.695,44.216996 121.837,133.855996 145.013,181.960996 23.176,-48.105 86.322,-137.744 145.016,-181.960996 42.361,-31.897 110.985,-56.5840002 110.985,21.96 0,15.680996 -8.962,131.775996 -14.223,150.627996 -18.272,65.516 -84.873,82.228 -144.112,72.116 103.55,17.68 129.889,76.238 73,134.8 -108.04,111.223 -155.288,-27.905 -167.385,-63.554 -3.489,-10.262 -2.991,-10.498 -6.561,0 -12.098,35.649 -59.342,174.777 -167.382,63.554 -56.889992,-58.562 -30.550992,-117.12 72.999,-134.8 -59.239,10.112 -125.839992,-6.6 -144.111992,-72.116 -5.261,-18.852 -14.223,-134.947 -14.223,-150.627996 0,-78.5440002 68.633002,-53.857 110.984992,-21.96 z"
     id="path1"
     style="fill:none;fill-opacity:1;stroke-width:35;stroke-dasharray:none" />
</svg>
